<?xml version="1.0" standalone="no"?><!DOCTYPE svg PUBLIC "-//W3C//DTD SVG 1.1//EN" "http://www.w3.org/Graphics/SVG/1.1/DTD/svg11.dtd"><svg class="icon" width="200px" height="200.00px" viewBox="0 0 1024 1024" version="1.1" xmlns="http://www.w3.org/2000/svg"><path d="M102.4 153.6m102.4 0l614.4 0q102.4 0 102.4 102.4l0 358.4q0 102.4-102.4 102.4l-614.4 0q-102.4 0-102.4-102.4l0-358.4q0-102.4 102.4-102.4Z" fill="#3D60F6" /><path d="M102.4 614.4h819.2a102.4 102.4 0 0 1-102.4 102.4H204.8a102.4 102.4 0 0 1-102.4-102.4z" fill="#2A44A1" /><path d="M614.4 716.8H409.6a102.4 102.4 0 0 1-102.4 102.4h409.6a102.4 102.4 0 0 1-102.4-102.4z" fill="#3D60F6" /><path d="M256 819.2m25.6 0l460.8 0q25.6 0 25.6 25.6l0 0q0 25.6-25.6 25.6l-460.8 0q-25.6 0-25.6-25.6l0 0q0-25.6 25.6-25.6Z" fill="#2A44A1" /><path d="M256 204.8h512a51.2 51.2 0 0 1 51.2 51.2v358.4H204.8V256a51.2 51.2 0 0 1 51.2-51.2z" fill="#FFFFFF" /><path d="M658.2272 394.752l-29.696-59.2896A51.2 51.2 0 0 0 582.7584 307.2h-10.24a10.24 10.24 0 0 0-10.24 8.704 51.2 51.2 0 0 1-100.9664 0 10.24 10.24 0 0 0-10.24-8.704h-10.24a51.2 51.2 0 0 0-45.7728 28.2624l-29.696 59.2896a10.24 10.24 0 0 0 9.216 14.848H409.6v133.12a20.48 20.48 0 0 0 20.48 20.48h163.84a20.48 20.48 0 0 0 20.48-20.48V409.6h34.6112a10.24 10.24 0 0 0 9.216-14.848z" fill="#FFBA40" /><path d="M634.88 204.8v4.3008A36.5568 36.5568 0 0 1 598.3232 245.76H425.7792A36.5568 36.5568 0 0 1 389.12 209.1008V204.8h245.76z" fill="#36C196" /></svg>