<?xml version="1.0" encoding="utf-8"?>
<!-- Generator: Adobe Illustrator 27.6.1, SVG Export Plug-In . SVG Version: 6.00 Build 0)  -->
<svg version="1.1" id="图层_1" xmlns="http://www.w3.org/2000/svg" xmlns:xlink="http://www.w3.org/1999/xlink" x="0px" y="0px"
	 viewBox="0 0 25 24" style="enable-background:new 0 0 25 24;" xml:space="preserve">
<style type="text/css">
	.st0{fill-rule:evenodd;clip-rule:evenodd;fill:url(#SVGID_1_);}
</style>
<linearGradient id="SVGID_1_" gradientUnits="userSpaceOnUse" x1="6.348" y1="5.3263" x2="20.6346" y2="25.4689" gradientTransform="matrix(1 0 0 -1 0 26)">
	<stop  offset="0" style="stop-color:#4A6FE3"/>
	<stop  offset="1" style="stop-color:#4294F0"/>
</linearGradient>
<path class="st0" d="M16.9,12c0,2.4-2,4.4-4.4,4.4s-4.4-2-4.4-4.4c0-2.4,2-4.4,4.4-4.4S16.9,9.6,16.9,12z M21,14.2
	c-1,3.8-4.4,6.6-8.5,6.6c-4.1,0-7.5-2.8-8.5-6.6c-0.1,0-0.1,0-0.2,0H1.5c-0.6,0-1-0.4-1-1v-2.4c0-0.6,0.4-1,1-1h2.4
	c0.1,0,0.1,0,0.2,0c1-3.8,4.4-6.6,8.5-6.6c4.1,0,7.5,2.8,8.5,6.6c0.1,0,0.1,0,0.2,0h2.4c0.6,0,1,0.4,1,1v2.4c0,0.6-0.4,1-1,1h-2.4
	C21.1,14.2,21,14.2,21,14.2z"/>
</svg>
