<?xml version="1.0" standalone="no"?><!DOCTYPE svg PUBLIC "-//W3C//DTD SVG 1.1//EN" "http://www.w3.org/Graphics/SVG/1.1/DTD/svg11.dtd"><svg class="icon" width="200px" height="200.00px" viewBox="0 0 1024 1024" version="1.1" xmlns="http://www.w3.org/2000/svg"><path d="M770.2528 921.6H256a102.4 102.4 0 0 1-102.4-102.4V456.8064A102.4 102.4 0 0 1 189.44 378.88l257.1264-219.648a102.4 102.4 0 0 1 133.12 0L836.7104 378.88a102.4 102.4 0 0 1 35.9424 77.824V819.2a102.4 102.4 0 0 1-102.4 102.4z" fill="#3D60F6" /><path d="M513.1264 512a153.6 153.6 0 0 1 153.6 153.6v256h-307.2V665.6a153.6 153.6 0 0 1 153.6-153.6z" fill="#2A44A1" /><path d="M513.1264 358.4m-51.2 0a51.2 51.2 0 1 0 102.4 0 51.2 51.2 0 1 0-102.4 0Z" fill="#36C196" /><path d="M769.1264 256m-153.6 0a153.6 153.6 0 1 0 307.2 0 153.6 153.6 0 1 0-307.2 0Z" fill="#FFBA40" /><path d="M769.1264 256m-51.2 0a51.2 51.2 0 1 0 102.4 0 51.2 51.2 0 1 0-102.4 0Z" fill="#FFFFFF" /><path d="M755.5072 448.8192l-85.9136-75.8784h199.0656l-86.016 75.8784a20.48 20.48 0 0 1-27.136 0z" fill="#FFBA40" /></svg>